<?xml version="1.0" standalone="no"?>
<!DOCTYPE svg PUBLIC "-//W3C//DTD SVG 20010904//EN"
 "http://www.w3.org/TR/2001/REC-SVG-20010904/DTD/svg10.dtd">
<svg version="1.0" xmlns="http://www.w3.org/2000/svg"
 width="512.000000pt" height="512.000000pt" viewBox="0 0 512.000000 512.000000"
 preserveAspectRatio="xMidYMid meet">

<g transform="translate(0.000000,512.000000) scale(0.100000,-0.100000)"
fill="#000000" stroke="none">
<path d="M2425 4185 c-156 -30 -236 -69 -518 -258 -231 -155 -386 -238 -537
-285 -213 -67 -339 -82 -701 -82 -157 0 -310 -5 -339 -10 -131 -25 -229 -99
-287 -218 l-38 -76 -3 -230 c-4 -256 6 -365 45 -491 98 -313 346 -570 652
-674 83 -29 191 -51 246 -51 39 0 45 -3 66 -37 78 -129 251 -324 384 -433 721
-590 1764 -550 2434 95 105 101 185 196 256 303 47 71 49 72 91 72 23 0 74 7
112 15 213 44 390 143 539 298 119 125 196 254 246 412 39 126 49 235 45 491
l-3 230 -38 76 c-58 119 -156 193 -287 218 -29 5 -182 10 -339 10 -362 0 -488
15 -701 82 -151 47 -305 129 -536 284 -119 80 -246 159 -282 178 -173 86 -339
113 -507 81z m305 -161 c94 -28 178 -74 400 -223 387 -258 627 -352 983 -383
l137 -12 0 -84 0 -83 -101 3 c-96 3 -102 2 -120 -21 -22 -27 -24 -68 -4 -95
17 -22 76 -35 163 -36 l62 0 0 -84 c0 -83 -1 -85 -30 -106 -72 -51 -293 -113
-539 -150 -331 -50 -646 -70 -1121 -70 -474 0 -790 20 -1120 70 -240 36 -456
95 -532 146 l-38 24 0 85 0 85 53 0 c245 0 581 81 835 200 127 61 175 89 435
262 208 137 292 178 367 178 75 0 161 -41 346 -165 327 -220 462 -292 679
-364 160 -53 194 -58 225 -33 27 22 33 79 11 106 -7 9 -45 25 -85 36 -228 65
-395 148 -681 337 -121 81 -251 161 -288 179 -141 67 -273 67 -414 0 -37 -18
-164 -97 -282 -175 -296 -197 -474 -284 -706 -344 -127 -33 -260 -55 -392 -63
l-103 -7 0 84 0 85 133 12 c362 32 600 124 977 377 263 176 368 229 495 249
54 8 199 -3 255 -20z m-2007 -1041 c4 -378 7 -441 26 -538 26 -139 60 -257
110 -379 45 -110 48 -108 -67 -76 -248 69 -464 259 -569 500 -60 138 -68 195
-68 485 l0 260 27 46 c33 57 88 99 148 115 27 8 115 13 217 13 l171 1 5 -427z
m4102 402 c60 -29 110 -86 130 -144 15 -45 16 -84 13 -299 -5 -271 -15 -330
-76 -465 -106 -233 -322 -420 -564 -487 -115 -32 -112 -34 -67 76 50 122 84
240 110 379 19 97 22 160 26 538 l5 429 191 -4 c166 -3 197 -6 232 -23z
m-3827 -691 c166 -56 474 -109 817 -140 243 -22 978 -30 1254 -15 477 27 883
90 1090 167 35 13 66 23 67 21 8 -8 -41 -159 -75 -233 -205 -438 -679 -747
-1286 -840 -134 -20 -450 -23 -575 -5 -241 35 -433 91 -625 181 -59 27 -118
50 -131 50 -50 0 -80 -62 -53 -112 15 -29 211 -120 369 -172 240 -78 435 -109
705 -109 378 -1 693 71 1006 230 238 120 384 238 586 473 12 13 -41 -109 -83
-192 -223 -445 -642 -771 -1134 -884 -747 -171 -1530 199 -1874 884 -44 88
-89 192 -83 192 2 0 29 -31 61 -70 77 -94 210 -210 240 -210 38 0 76 37 76 73
0 26 -16 46 -103 132 -56 55 -126 132 -155 170 -71 95 -146 243 -177 349 -30
105 -29 100 -7 91 9 -3 50 -18 90 -31z"/>
</g>
</svg>
